<svg width="23" height="21" viewBox="0 0 23 21" fill="none" xmlns="http://www.w3.org/2000/svg">
<path d="M15.4375 9.45834C16.3695 9.45834 17.125 8.75878 17.125 7.89584C17.125 7.03289 16.3695 6.33334 15.4375 6.33334C14.5055 6.33334 13.75 7.03289 13.75 7.89584C13.75 8.75878 14.5055 9.45834 15.4375 9.45834Z" fill="#3F4444"/>
<path d="M7.5625 9.45834C8.49448 9.45834 9.25 8.75878 9.25 7.89584C9.25 7.03289 8.49448 6.33334 7.5625 6.33334C6.63052 6.33334 5.875 7.03289 5.875 7.89584C5.875 8.75878 6.63052 9.45834 7.5625 9.45834Z" fill="#3F4444"/>
<path d="M11.4887 0.0833321C5.27875 0.0833321 0.25 4.75 0.25 10.5C0.25 16.25 5.27875 20.9167 11.4887 20.9167C17.71 20.9167 22.75 16.25 22.75 10.5C22.75 4.75 17.71 0.0833321 11.4887 0.0833321ZM11.5 18.8333C6.5275 18.8333 2.5 15.1042 2.5 10.5C2.5 5.89583 6.5275 2.16667 11.5 2.16667C16.4725 2.16667 20.5 5.89583 20.5 10.5C20.5 15.1042 16.4725 18.8333 11.5 18.8333ZM11.5 14.6667C9.835 14.6667 8.40625 13.8229 7.61875 12.5833H5.74C6.19201 13.6574 6.9837 14.58 8.01144 15.2305C9.03918 15.881 10.2551 16.229 11.5 16.229C12.7449 16.229 13.9608 15.881 14.9886 15.2305C16.0163 14.58 16.808 13.6574 17.26 12.5833H15.3812C14.605 13.8229 13.165 14.6667 11.5 14.6667Z" fill="#3F4444"/>
</svg>
