<svg width="37" height="37" viewBox="0 0 37 37" fill="none" xmlns="http://www.w3.org/2000/svg">
<path d="M6.375 0.625H30.75C32.2418 0.625 33.6726 1.21763 34.7275 2.27252C35.7824 3.32742 36.375 4.75816 36.375 6.25V23.125C36.375 24.6168 35.7824 26.0476 34.7275 27.1025C33.6726 28.1574 32.2418 28.75 30.75 28.75H22.1512L15.2006 35.7006C14.9384 35.9628 14.6043 36.1413 14.2407 36.2136C13.877 36.2859 13.5001 36.2488 13.1575 36.1069C12.815 35.965 12.5222 35.7248 12.3161 35.4165C12.1101 35.1082 12.0001 34.7458 12 34.375V28.75H6.375C4.88316 28.75 3.45242 28.1574 2.39752 27.1025C1.34263 26.0476 0.75 24.6168 0.75 23.125V6.25C0.75 4.75816 1.34263 3.32742 2.39752 2.27252C3.45242 1.21763 4.88316 0.625 6.375 0.625ZM30.75 2.5H6.375C5.38044 2.5 4.42661 2.89509 3.72335 3.59835C3.02009 4.30161 2.625 5.25544 2.625 6.25V23.125C2.625 24.1196 3.02009 25.0734 3.72335 25.7766C4.42661 26.4799 5.38044 26.875 6.375 26.875H13.875V34.375L21.375 26.875H30.75C31.7446 26.875 32.6984 26.4799 33.4016 25.7766C34.1049 25.0734 34.5 24.1196 34.5 23.125V6.25C34.5 5.25544 34.1049 4.30161 33.4016 3.59835C32.6984 2.89509 31.7446 2.5 30.75 2.5ZM6.375 8.125H30.75V10H6.375V8.125ZM6.375 13.75H28.875V15.625H6.375V13.75ZM6.375 19.375H21.375V21.25H6.375V19.375Z" fill="#0A5E5C"/>
</svg>
