<svg width="22" height="23" viewBox="0 0 22 23" fill="none" xmlns="http://www.w3.org/2000/svg">
<path d="M21.7394 11.1802L1.31707 0.940913C1.23407 0.899409 1.13885 0.889644 1.04852 0.911616C0.840999 0.962886 0.711604 1.17285 0.762874 1.38281L2.86737 9.98144C2.8991 10.1108 2.99432 10.2158 3.12127 10.2573L6.72723 11.4951L3.12371 12.7329C2.99676 12.7769 2.90155 12.8794 2.87225 13.0088L0.762874 21.6196C0.740901 21.71 0.750667 21.8052 0.792171 21.8857C0.887386 22.0786 1.12176 22.1567 1.31707 22.0615L21.7394 11.8809C21.8151 11.8442 21.8762 11.7808 21.9152 11.7075C22.0104 11.5122 21.9323 11.2778 21.7394 11.1802ZM3.1701 19.1733L4.39813 14.1538L11.6052 11.6807C11.6613 11.6611 11.7077 11.6172 11.7272 11.5586C11.7614 11.4561 11.7077 11.3462 11.6052 11.3096L4.39813 8.83886L3.17498 3.83886L18.507 11.5268L3.1701 19.1733V19.1733Z" fill="#3F4444"/>
</svg>
