<svg width="86" height="36" viewBox="0 0 86 36" fill="none" xmlns="http://www.w3.org/2000/svg">
<path d="M63.125 35.9999H66.875V33.0833H63.125V35.9999ZM72.5 19.9583C75.6125 19.9583 78.1063 18.0041 78.1063 15.5833L78.125 6.83325C78.125 4.41242 75.6125 2.45825 72.5 2.45825C69.3875 2.45825 66.875 4.41242 66.875 6.83325V15.5833C66.875 18.0041 69.3875 19.9583 72.5 19.9583ZM70.625 35.9999H74.375V33.0833H70.625V35.9999ZM78.125 35.9999H81.875V33.0833H78.125V35.9999ZM85.625 15.5833H82.4375C82.4375 19.9583 77.675 23.0208 72.5 23.0208C67.325 23.0208 62.5625 19.9583 62.5625 15.5833H59.375C59.375 20.5562 64.475 24.6687 70.625 25.3832V30.1666H74.375V25.3832C80.525 24.6687 85.625 20.5562 85.625 15.5833Z" fill="#03A65D"/>
<path d="M12.9817 3C3.81813 3 0 4.53852 0 5.77992V26.6549C0 27.8679 3.81813 29.4935 12.9817 29.4935C22.1452 29.4935 25.9633 27.955 25.9633 26.7136V5.83859C25.9633 4.62557 22.1452 3 12.9817 3ZM38.754 3.05866C38.4974 3.07134 38.2489 3.1744 38.0378 3.35577L28.1106 11.2792C27.7288 11.635 27.4906 12.2216 27.4906 12.8177V19.6758C27.4906 20.2719 27.7288 20.8566 28.1106 21.2143L38.0378 29.1396C38.3066 29.3913 39.6139 30.1804 39.6139 27.6011V4.89239C39.6139 3.40308 39.2 3.03596 38.754 3.05866Z" fill="#03A65D"/>
<line y1="-1" x2="46.1344" y2="-1" transform="matrix(0.707107 -0.707107 0.807737 0.589543 4 34.6219)" stroke="#0A5E5C" stroke-width="2"/>
</svg>
