<svg width="17" height="21" viewBox="0 0 17 21" fill="none" xmlns="http://www.w3.org/2000/svg">
<path d="M3.4195 0.54062L4.58517 0.182287C5.67934 -0.15313 6.84609 0.389578 7.31517 1.45L8.24576 3.5625C8.65092 4.48229 8.42667 5.56458 7.68892 6.2375L5.63709 8.11041C5.76276 9.23125 6.15492 10.3344 6.81142 11.4198C7.43519 12.47 8.27179 13.3892 9.27167 14.1229L11.7363 13.3312C12.6712 13.0323 13.6884 13.3771 14.2604 14.1865L15.5962 16.0719C16.2624 17.0135 16.1433 18.3115 15.3167 19.1094L14.4305 19.9646C13.5487 20.8156 12.2888 21.125 11.1242 20.775C8.37359 19.95 5.84509 17.501 3.53759 13.4281C1.22684 9.34895 0.411087 5.88645 1.09142 3.04479C1.37742 1.84895 2.2625 0.895828 3.4195 0.54062Z" fill="#0A5E5C"/>
</svg>
