<svg width="41" height="41" viewBox="0 0 41 41" fill="none" xmlns="http://www.w3.org/2000/svg">
<path d="M40.1375 19.6125L21.3875 0.862514C21.1533 0.629701 20.8365 0.499023 20.5063 0.499023C20.1761 0.499023 19.8592 0.629701 19.625 0.862514L0.875034 19.6125C0.670251 19.8516 0.563244 20.1592 0.575395 20.4738C0.587547 20.7884 0.717962 21.0869 0.94058 21.3095C1.1632 21.5321 1.46162 21.6625 1.77622 21.6747C2.09081 21.6868 2.39841 21.5798 2.63753 21.375L20.5 3.51251L38.3625 21.3875C38.6017 21.5923 38.9093 21.6993 39.2239 21.6872C39.5384 21.675 39.8369 21.5446 40.0595 21.322C40.2821 21.0994 40.4125 20.8009 40.4247 20.4863C40.4368 20.1717 40.3298 19.8641 40.125 19.625L40.1375 19.6125Z" fill="#3F4444"/>
<path d="M33 38H26.75V25.5H14.25V38H8V20.5L5.5 23V38C5.5 38.663 5.76339 39.2989 6.23223 39.7678C6.70107 40.2366 7.33696 40.5 8 40.5H16.75V28H24.25V40.5H33C33.663 40.5 34.2989 40.2366 34.7678 39.7678C35.2366 39.2989 35.5 38.663 35.5 38V22.7L33 20.2V38Z" fill="#3F4444"/>
</svg>
