<svg width="26" height="23" viewBox="0 0 26 23" fill="none" xmlns="http://www.w3.org/2000/svg">
<path d="M9.8415 0.0812073C11.6542 0.0811729 13.429 0.53991 14.9551 1.40299C16.4812 2.26607 17.6947 3.49727 18.4515 4.95051C19.2084 6.40375 19.4768 8.01803 19.225 9.60183C18.9732 11.1856 18.2118 12.6725 17.031 13.8859L25.2583 21.1445L24.2277 22.0538L15.9989 14.7939C14.8384 15.6695 13.4552 16.2846 11.9671 16.587C10.479 16.8893 8.9302 16.8698 7.45249 16.5303C5.97478 16.1907 4.61199 15.5411 3.48018 14.6367C2.34836 13.7323 1.48107 12.6 0.952149 11.3362C0.423231 10.0724 0.248365 8.71451 0.442442 7.37823C0.63652 6.04195 1.19379 4.76684 2.06679 3.66151C2.9398 2.55619 4.10267 1.65338 5.45637 1.03C6.81007 0.406607 8.31448 0.0811037 9.8415 0.0812073ZM9.8415 1.36728C7.71514 1.36728 5.67587 2.11251 4.17231 3.43903C2.66874 4.76556 1.82405 6.5647 1.82405 8.44069C1.82405 10.3167 2.66874 12.1158 4.17231 13.4423C5.67587 14.7689 7.71514 15.5141 9.8415 15.5141C11.9679 15.5141 14.0071 14.7689 15.5107 13.4423C17.0143 12.1158 17.8589 10.3167 17.8589 8.44069C17.8589 6.5647 17.0143 4.76556 15.5107 3.43903C14.0071 2.11251 11.9679 1.36728 9.8415 1.36728Z" fill="#3F4444"/>
</svg>
