<svg width="29" height="29" viewBox="0 0 29 29" fill="none" xmlns="http://www.w3.org/2000/svg">
<path d="M27.2798 15.2417C27.854 14.4829 28.1719 13.5532 28.1719 12.5859C28.1719 11.0513 27.314 9.59863 25.9331 8.78857C25.5776 8.58006 25.1729 8.47032 24.7607 8.4707H16.5645L16.7695 4.27002C16.8174 3.25488 16.4585 2.29101 15.7612 1.55615C15.419 1.19394 15.0062 0.905752 14.5482 0.709398C14.0903 0.513043 13.5969 0.412692 13.0986 0.414545C11.3213 0.414545 9.74902 1.61083 9.27734 3.32324L6.34131 13.9531H1.92188C1.31689 13.9531 0.828125 14.4419 0.828125 15.0469V27.4883C0.828125 28.0933 1.31689 28.582 1.92188 28.582H22.4741C22.7886 28.582 23.0962 28.5205 23.3799 28.3975C25.0068 27.7036 26.0562 26.1143 26.0562 24.3506C26.0562 23.9199 25.9946 23.4961 25.8716 23.0859C26.4458 22.3271 26.7637 21.3975 26.7637 20.4302C26.7637 19.9995 26.7021 19.5757 26.5791 19.1655C27.1533 18.4067 27.4712 17.477 27.4712 16.5098C27.4644 16.0791 27.4028 15.6519 27.2798 15.2417ZM3.28906 26.1211V16.4141H6.05762V26.1211H3.28906ZM25.041 14.0557L24.2925 14.7051L24.7676 15.5732C24.9241 15.8592 25.0053 16.1803 25.0034 16.5063C25.0034 17.0703 24.7573 17.6069 24.3335 17.9761L23.585 18.6255L24.0601 19.4936C24.2166 19.7796 24.2977 20.1007 24.2959 20.4268C24.2959 20.9907 24.0498 21.5273 23.626 21.8965L22.8774 22.5459L23.3525 23.4141C23.5091 23.7 23.5902 24.0212 23.5884 24.3472C23.5884 25.1128 23.1372 25.8032 22.4399 26.1177H8.24512V16.3047L11.646 3.98291C11.7337 3.66709 11.9219 3.38846 12.1822 3.18924C12.4425 2.99002 12.7606 2.88107 13.0884 2.8789C13.3481 2.8789 13.6045 2.9541 13.8096 3.10791C14.1479 3.36084 14.3291 3.74365 14.3086 4.15039L13.9805 10.9316H24.7266C25.335 11.3042 25.7109 11.9331 25.7109 12.5859C25.7109 13.1499 25.4648 13.6831 25.041 14.0557Z" fill="#3F4444"/>
</svg>
