<svg width="20" height="20" viewBox="0 0 20 20" fill="none" xmlns="http://www.w3.org/2000/svg">
<path d="M19.3475 10.5279C19.7675 9.98909 20 9.32897 20 8.64217C20 7.55249 19.3725 6.52107 18.3625 5.94589C18.1025 5.79784 17.8064 5.71992 17.505 5.72019H11.51L11.66 2.73755C11.695 2.01676 11.4325 1.33238 10.9225 0.810598C10.6722 0.553417 10.3703 0.348793 10.0353 0.209374C9.70032 0.0699547 9.33946 -0.00129842 8.975 1.79108e-05C7.675 1.79108e-05 6.525 0.849429 6.18 2.0653L4.0325 9.61292H4.025V20H15.8325C16.0625 20 16.2875 19.9563 16.495 19.8689C17.685 19.3763 18.4525 18.2478 18.4525 16.9955C18.4525 16.6897 18.4075 16.3888 18.3175 16.0976C18.7375 15.5588 18.97 14.8987 18.97 14.2119C18.97 13.9061 18.925 13.6052 18.835 13.3139C19.255 12.7752 19.4875 12.115 19.4875 11.4282C19.4825 11.1224 19.4375 10.8191 19.3475 10.5279ZM0 10.3895V19.2234C0 19.653 0.3575 20 0.8 20H2.425V9.61292H0.8C0.3575 9.61292 0 9.95997 0 10.3895Z" fill="#325DF7"/>
</svg>
