<svg width="400" height="60" viewBox="0 0 400 60" fill="none" xmlns="http://www.w3.org/2000/svg">
<g clip-path="url(#clip0_42_2)">
<path d="M370 22.5C366 22.5 362.125 23.125 358.5 24.3V32.05C358.5 33.025 357.925 33.9 357.1 34.3C354.65 35.525 352.425 37.1 350.45 38.925C350 39.375 349.375 39.625 348.7 39.625C348 39.625 347.375 39.35 346.925 38.9L340.725 32.7C340.492 32.4731 340.307 32.2008 340.182 31.8999C340.057 31.599 339.995 31.2757 340 30.95C340 30.25 340.275 29.625 340.725 29.175C348.35 21.95 358.65 17.5 370 17.5C381.35 17.5 391.65 21.95 399.275 29.175C399.725 29.625 400 30.25 400 30.95C400 31.65 399.725 32.275 399.275 32.725L393.075 38.925C392.625 39.375 392 39.65 391.3 39.65C390.625 39.65 390 39.375 389.55 38.95C387.56 37.0941 385.312 35.5362 382.875 34.325C382.454 34.1198 382.099 33.7998 381.851 33.4017C381.603 33.0037 381.473 32.5438 381.475 32.075V24.325C377.875 23.125 374 22.5 370 22.5Z" fill="#F24E1E"/>
</g>
<path d="M19.6623 10C5.78302 10 0 12.0941 0 13.7838V42.197C0 43.8481 5.78302 46.0607 19.6623 46.0607C33.5415 46.0607 39.3245 43.9666 39.3245 42.2769V13.8636C39.3245 12.2126 33.5415 10 19.6623 10ZM58.6977 10.0798C58.3089 10.0971 57.9325 10.2374 57.6128 10.4842L42.5769 21.269C41.9986 21.7532 41.6378 22.5517 41.6378 23.3631V32.6976C41.6378 33.509 41.9986 34.3049 42.5769 34.7917L57.6128 45.579C58.0199 45.9216 60 46.9957 60 43.4849V12.5758C60 10.5486 59.3731 10.0489 58.6977 10.0798Z" fill="#03A65D"/>
<path d="M187.5 53H192.5V48.8334H187.5V53ZM200 30.0834C204.15 30.0834 207.475 27.2917 207.475 23.8334L207.5 11.3334C207.5 7.87504 204.15 5.08337 200 5.08337C195.85 5.08337 192.5 7.87504 192.5 11.3334V23.8334C192.5 27.2917 195.85 30.0834 200 30.0834ZM197.5 53H202.5V48.8334H197.5V53ZM207.5 53H212.5V48.8334H207.5V53ZM217.5 23.8334H213.25C213.25 30.0834 206.9 34.4584 200 34.4584C193.1 34.4584 186.75 30.0834 186.75 23.8334H182.5C182.5 30.9375 189.3 36.8125 197.5 37.8334V44.6667H202.5V37.8334C210.7 36.8125 217.5 30.9375 217.5 23.8334Z" fill="#03A65D"/>
<line x1="2.29289" y1="55.3777" x2="55.3777" y2="2.2929" stroke="#0A5E5C" stroke-width="2"/>
<defs>
<clipPath id="clip0_42_2">
<rect width="60" height="60" fill="white" transform="translate(340)"/>
</clipPath>
</defs>
</svg>
