<svg width="39" height="33" viewBox="0 0 39 33" fill="none" xmlns="http://www.w3.org/2000/svg">
<path d="M38.3939 2.84545C38.3939 2.32577 38.1866 1.82739 37.8177 1.45992C37.4487 1.09246 36.9483 0.886017 36.4265 0.886017C36.3262 0.886017 36.2298 0.900915 36.133 0.915374V0.873749H2.34281V0.886017C1.82101 0.886017 1.32059 1.09246 0.951618 1.45992C0.58265 1.82739 0.375366 2.32577 0.375366 2.84545V31.1065H0.397364C0.508231 32.084 1.33137 32.8468 2.34237 32.8468V32.8591H36.1326V32.8174C36.2289 32.8319 36.3253 32.8468 36.426 32.8468C37.4375 32.8468 38.2606 32.0844 38.3715 31.1065H38.4058V2.84545H38.3939ZM34.0257 28.4964H29.2474C29.2313 28.429 29.2068 28.3639 29.1744 28.3027L29.1823 28.2983L19.1871 11.0569L19.1831 11.0591C19.0729 10.831 18.9003 10.6385 18.6853 10.5037C18.4702 10.3688 18.2213 10.2971 17.9671 10.2967C17.706 10.297 17.4505 10.3725 17.2314 10.5141C17.0123 10.6556 16.8389 10.8572 16.7322 11.0946L10.0806 22.5681L8.45193 19.7591L8.44973 19.7604C8.39166 19.6401 8.30072 19.5386 8.18734 19.4675C8.07396 19.3963 7.94274 19.3584 7.80873 19.3582C7.5188 19.3582 7.27023 19.5313 7.15805 19.778L4.75593 23.9216V5.24873H34.0257V28.4964Z" fill="#3AB4E9"/>
<path d="M27.3632 16.2898C29.8172 16.2898 31.8066 14.3085 31.8066 11.8644C31.8066 9.42036 29.8172 7.43906 27.3632 7.43906C24.9091 7.43906 22.9197 9.42036 22.9197 11.8644C22.9197 14.3085 24.9091 16.2898 27.3632 16.2898Z" fill="#3AB4E9"/>
</svg>
