<svg width="28" height="16" viewBox="0 0 28 16" fill="none" xmlns="http://www.w3.org/2000/svg">
<path d="M4.875 0.5C2.66586 0.5 0.875 2.29086 0.875 4.5V11.5C0.875 13.7091 2.66586 15.5 4.875 15.5H20.2912C20.9588 15.5 21.5 14.9588 21.5 14.2912C21.5 13.3928 22.4454 12.8083 23.2491 13.2099L25.7778 14.4734C26.3965 14.7834 27.125 14.3336 27.125 13.6416V2.35923C27.125 1.66676 26.3961 1.21654 25.7769 1.52656L23.2486 2.7896C22.4451 3.191 21.5 2.60669 21.5 1.7085C21.5 1.04106 20.9589 0.5 20.2915 0.5H4.875ZM2.75 6.375C2.75 4.16586 4.54086 2.375 6.75 2.375H15.625C17.8341 2.375 19.625 4.16586 19.625 6.375V9.625C19.625 11.8341 17.8341 13.625 15.625 13.625H6.75C4.54086 13.625 2.75 11.8341 2.75 9.625V6.375ZM22.5365 5.2552C23.7832 4.63186 25.25 5.53841 25.25 6.93225V9.06775C25.25 10.4616 23.7832 11.3681 22.5365 10.7448C21.9013 10.4272 21.5 9.77795 21.5 9.06775V6.93225C21.5 6.22205 21.9013 5.57281 22.5365 5.2552Z" fill="#0A5E5C"/>
</svg>
